# xmcd
#
# Track frame offsets:
#	150
#	13891
#	34270
#	57295
#	82644
#	101220
#	121486
#	148397
#	172176
#	195212
#	213996
#	235351
#	260291
#	267008
#
# Disc length: 3641 seconds
#
# Revision: 1
# Processed by: cddbd v1.5.1PL0 Copyright (c) Steve Scherf et al.
# Submitted via: audiograbber 1.83.01
#
DISCID=c60e370e
DTITLE=Len "Boogsie" Sharpe - Fresh Air
DYEAR=1999
DGENRE=Steel
TTITLE0=Blue Rose
TTITLE1=Fresh Air
TTITLE2=Sunday Morning Funk
TTITLE3=Just Live Me
TTITLE4=Grooving in LA
TTITLE5=First Born
TTITLE6=My Beautiful You
TTITLE7=Calypso Nights
TTITLE8=Moving Away
TTITLE9=Taking it Easy
TTITLE10=What's Up?
TTITLE11=Liming on the Corner
TTITLE12=38 Special
TTITLE13=Small Talk
EXTD=
EXTT0=
EXTT1=
EXTT2=
EXTT3=
EXTT4=
EXTT5=
EXTT6=
EXTT7=
EXTT8=
EXTT9=
EXTT10=
EXTT11=
EXTT12=
EXTT13=
PLAYORDER=
